<mxfile host="app.diagrams.net" modified="2021-05-20T13:34:30.833Z" agent="5.0 (Macintosh; Intel Mac OS X 10_15_7) AppleWebKit/537.36 (KHTML, like Gecko) Chrome/90.0.4430.93 Safari/537.36" etag="cHe3XYfrXW_6oYsHK2ET" version="14.6.12" type="github">
  <diagram id="aoj3swG1tekXxO3n4QQ1" name="Page-1">
    <mxGraphModel dx="1186" dy="1864" grid="1" gridSize="10" guides="1" tooltips="1" connect="1" arrows="1" fold="1" page="1" pageScale="1" pageWidth="850" pageHeight="1100" math="0" shadow="0">
      <root>
        <mxCell id="0" />
        <mxCell id="1" parent="0" />
        <mxCell id="Rpx-h0TqYVqvjsVcwSOK-16" value="App Workers" style="whiteSpace=wrap;html=1;" vertex="1" parent="1">
          <mxGeometry x="1250" y="-50" width="120" height="60" as="geometry" />
        </mxCell>
        <mxCell id="Rpx-h0TqYVqvjsVcwSOK-4" value="" style="rounded=1;whiteSpace=wrap;html=1;" vertex="1" parent="1">
          <mxGeometry x="950" y="220" width="150" height="220" as="geometry" />
        </mxCell>
        <mxCell id="z3XUsXF2Qn8Yz3vl9ZlV-6" value="" style="edgeStyle=orthogonalEdgeStyle;rounded=0;orthogonalLoop=1;jettySize=auto;html=1;" parent="1" source="z3XUsXF2Qn8Yz3vl9ZlV-1" target="z3XUsXF2Qn8Yz3vl9ZlV-5" edge="1">
          <mxGeometry relative="1" as="geometry" />
        </mxCell>
        <mxCell id="z3XUsXF2Qn8Yz3vl9ZlV-1" value="User" style="rounded=1;whiteSpace=wrap;html=1;" parent="1" vertex="1">
          <mxGeometry x="160" y="160" width="120" height="60" as="geometry" />
        </mxCell>
        <mxCell id="z3XUsXF2Qn8Yz3vl9ZlV-10" style="edgeStyle=orthogonalEdgeStyle;rounded=0;orthogonalLoop=1;jettySize=auto;html=1;entryX=0.5;entryY=0;entryDx=0;entryDy=0;" parent="1" source="z3XUsXF2Qn8Yz3vl9ZlV-2" target="z3XUsXF2Qn8Yz3vl9ZlV-5" edge="1">
          <mxGeometry relative="1" as="geometry" />
        </mxCell>
        <mxCell id="z3XUsXF2Qn8Yz3vl9ZlV-2" value="User" style="rounded=1;whiteSpace=wrap;html=1;" parent="1" vertex="1">
          <mxGeometry x="160" y="250" width="120" height="60" as="geometry" />
        </mxCell>
        <mxCell id="z3XUsXF2Qn8Yz3vl9ZlV-9" style="edgeStyle=orthogonalEdgeStyle;rounded=0;orthogonalLoop=1;jettySize=auto;html=1;entryX=0.5;entryY=0;entryDx=0;entryDy=0;" parent="1" source="z3XUsXF2Qn8Yz3vl9ZlV-3" target="z3XUsXF2Qn8Yz3vl9ZlV-5" edge="1">
          <mxGeometry relative="1" as="geometry" />
        </mxCell>
        <mxCell id="z3XUsXF2Qn8Yz3vl9ZlV-3" value="User" style="rounded=1;whiteSpace=wrap;html=1;" parent="1" vertex="1">
          <mxGeometry x="160" y="370" width="120" height="60" as="geometry" />
        </mxCell>
        <mxCell id="z3XUsXF2Qn8Yz3vl9ZlV-4" value="..." style="text;html=1;strokeColor=none;fillColor=none;align=center;verticalAlign=middle;whiteSpace=wrap;rounded=0;rotation=-90;" parent="1" vertex="1">
          <mxGeometry x="200" y="330" width="40" height="20" as="geometry" />
        </mxCell>
        <mxCell id="z3XUsXF2Qn8Yz3vl9ZlV-15" style="edgeStyle=orthogonalEdgeStyle;rounded=0;orthogonalLoop=1;jettySize=auto;html=1;entryX=0;entryY=0.5;entryDx=0;entryDy=0;" parent="1" source="z3XUsXF2Qn8Yz3vl9ZlV-5" target="z3XUsXF2Qn8Yz3vl9ZlV-11" edge="1">
          <mxGeometry relative="1" as="geometry" />
        </mxCell>
        <mxCell id="z3XUsXF2Qn8Yz3vl9ZlV-16" style="edgeStyle=orthogonalEdgeStyle;rounded=0;orthogonalLoop=1;jettySize=auto;html=1;entryX=0;entryY=0.5;entryDx=0;entryDy=0;" parent="1" source="z3XUsXF2Qn8Yz3vl9ZlV-5" target="z3XUsXF2Qn8Yz3vl9ZlV-12" edge="1">
          <mxGeometry relative="1" as="geometry" />
        </mxCell>
        <mxCell id="z3XUsXF2Qn8Yz3vl9ZlV-17" style="edgeStyle=orthogonalEdgeStyle;rounded=0;orthogonalLoop=1;jettySize=auto;html=1;entryX=0;entryY=0.5;entryDx=0;entryDy=0;" parent="1" source="z3XUsXF2Qn8Yz3vl9ZlV-5" target="z3XUsXF2Qn8Yz3vl9ZlV-13" edge="1">
          <mxGeometry relative="1" as="geometry" />
        </mxCell>
        <mxCell id="z3XUsXF2Qn8Yz3vl9ZlV-5" value="LB" style="rounded=1;whiteSpace=wrap;html=1;rotation=-90;" parent="1" vertex="1">
          <mxGeometry x="235" y="265" width="270" height="60" as="geometry" />
        </mxCell>
        <mxCell id="z3XUsXF2Qn8Yz3vl9ZlV-26" value="" style="edgeStyle=orthogonalEdgeStyle;rounded=0;orthogonalLoop=1;jettySize=auto;html=1;" parent="1" source="z3XUsXF2Qn8Yz3vl9ZlV-11" target="z3XUsXF2Qn8Yz3vl9ZlV-21" edge="1">
          <mxGeometry relative="1" as="geometry" />
        </mxCell>
        <mxCell id="z3XUsXF2Qn8Yz3vl9ZlV-11" value="Web Server" style="rounded=1;whiteSpace=wrap;html=1;" parent="1" vertex="1">
          <mxGeometry x="450" y="160" width="120" height="60" as="geometry" />
        </mxCell>
        <mxCell id="z3XUsXF2Qn8Yz3vl9ZlV-27" style="edgeStyle=orthogonalEdgeStyle;rounded=0;orthogonalLoop=1;jettySize=auto;html=1;" parent="1" source="z3XUsXF2Qn8Yz3vl9ZlV-12" target="z3XUsXF2Qn8Yz3vl9ZlV-21" edge="1">
          <mxGeometry relative="1" as="geometry" />
        </mxCell>
        <mxCell id="z3XUsXF2Qn8Yz3vl9ZlV-12" value="Web Server" style="rounded=1;whiteSpace=wrap;html=1;" parent="1" vertex="1">
          <mxGeometry x="450" y="250" width="120" height="60" as="geometry" />
        </mxCell>
        <mxCell id="z3XUsXF2Qn8Yz3vl9ZlV-28" style="edgeStyle=orthogonalEdgeStyle;rounded=0;orthogonalLoop=1;jettySize=auto;html=1;entryX=0.5;entryY=0;entryDx=0;entryDy=0;" parent="1" source="z3XUsXF2Qn8Yz3vl9ZlV-13" target="z3XUsXF2Qn8Yz3vl9ZlV-21" edge="1">
          <mxGeometry relative="1" as="geometry" />
        </mxCell>
        <mxCell id="z3XUsXF2Qn8Yz3vl9ZlV-13" value="Web Server" style="rounded=1;whiteSpace=wrap;html=1;" parent="1" vertex="1">
          <mxGeometry x="450" y="370" width="120" height="60" as="geometry" />
        </mxCell>
        <mxCell id="z3XUsXF2Qn8Yz3vl9ZlV-14" value="..." style="text;html=1;strokeColor=none;fillColor=none;align=center;verticalAlign=middle;whiteSpace=wrap;rounded=0;rotation=-90;" parent="1" vertex="1">
          <mxGeometry x="490" y="330" width="40" height="20" as="geometry" />
        </mxCell>
        <mxCell id="z3XUsXF2Qn8Yz3vl9ZlV-18" style="edgeStyle=orthogonalEdgeStyle;rounded=0;orthogonalLoop=1;jettySize=auto;html=1;entryX=0;entryY=0.5;entryDx=0;entryDy=0;" parent="1" source="z3XUsXF2Qn8Yz3vl9ZlV-21" target="z3XUsXF2Qn8Yz3vl9ZlV-22" edge="1">
          <mxGeometry relative="1" as="geometry" />
        </mxCell>
        <mxCell id="z3XUsXF2Qn8Yz3vl9ZlV-19" style="edgeStyle=orthogonalEdgeStyle;rounded=0;orthogonalLoop=1;jettySize=auto;html=1;entryX=0;entryY=0.5;entryDx=0;entryDy=0;" parent="1" source="z3XUsXF2Qn8Yz3vl9ZlV-21" target="z3XUsXF2Qn8Yz3vl9ZlV-23" edge="1">
          <mxGeometry relative="1" as="geometry" />
        </mxCell>
        <mxCell id="z3XUsXF2Qn8Yz3vl9ZlV-20" style="edgeStyle=orthogonalEdgeStyle;rounded=0;orthogonalLoop=1;jettySize=auto;html=1;entryX=0;entryY=0.5;entryDx=0;entryDy=0;" parent="1" source="z3XUsXF2Qn8Yz3vl9ZlV-21" target="z3XUsXF2Qn8Yz3vl9ZlV-24" edge="1">
          <mxGeometry relative="1" as="geometry" />
        </mxCell>
        <mxCell id="z3XUsXF2Qn8Yz3vl9ZlV-21" value="LB" style="rounded=1;whiteSpace=wrap;html=1;rotation=-90;" parent="1" vertex="1">
          <mxGeometry x="520" y="265" width="270" height="60" as="geometry" />
        </mxCell>
        <mxCell id="XvO12jJ2CztaaydwzWcA-7" style="edgeStyle=orthogonalEdgeStyle;rounded=0;orthogonalLoop=1;jettySize=auto;html=1;entryX=0;entryY=0.5;entryDx=0;entryDy=0;" parent="1" source="z3XUsXF2Qn8Yz3vl9ZlV-22" target="XvO12jJ2CztaaydwzWcA-5" edge="1">
          <mxGeometry relative="1" as="geometry" />
        </mxCell>
        <mxCell id="z3XUsXF2Qn8Yz3vl9ZlV-22" value="APP Server" style="rounded=1;whiteSpace=wrap;html=1;" parent="1" vertex="1">
          <mxGeometry x="735" y="160" width="120" height="60" as="geometry" />
        </mxCell>
        <mxCell id="XvO12jJ2CztaaydwzWcA-8" style="edgeStyle=orthogonalEdgeStyle;rounded=0;orthogonalLoop=1;jettySize=auto;html=1;" parent="1" source="z3XUsXF2Qn8Yz3vl9ZlV-23" target="XvO12jJ2CztaaydwzWcA-5" edge="1">
          <mxGeometry relative="1" as="geometry" />
        </mxCell>
        <mxCell id="Rpx-h0TqYVqvjsVcwSOK-11" style="edgeStyle=orthogonalEdgeStyle;rounded=0;orthogonalLoop=1;jettySize=auto;html=1;entryX=0.5;entryY=1;entryDx=0;entryDy=0;entryPerimeter=0;" edge="1" parent="1" source="z3XUsXF2Qn8Yz3vl9ZlV-23" target="Rpx-h0TqYVqvjsVcwSOK-10">
          <mxGeometry relative="1" as="geometry">
            <Array as="points">
              <mxPoint x="910" y="280" />
              <mxPoint x="910" y="-5" />
            </Array>
          </mxGeometry>
        </mxCell>
        <mxCell id="z3XUsXF2Qn8Yz3vl9ZlV-23" value="APP Server" style="rounded=1;whiteSpace=wrap;html=1;" parent="1" vertex="1">
          <mxGeometry x="735" y="250" width="120" height="60" as="geometry" />
        </mxCell>
        <mxCell id="XvO12jJ2CztaaydwzWcA-9" style="edgeStyle=orthogonalEdgeStyle;rounded=0;orthogonalLoop=1;jettySize=auto;html=1;" parent="1" source="z3XUsXF2Qn8Yz3vl9ZlV-24" target="XvO12jJ2CztaaydwzWcA-5" edge="1">
          <mxGeometry relative="1" as="geometry">
            <Array as="points">
              <mxPoint x="912" y="400" />
              <mxPoint x="912" y="280" />
            </Array>
          </mxGeometry>
        </mxCell>
        <mxCell id="z3XUsXF2Qn8Yz3vl9ZlV-24" value="APP Server" style="rounded=1;whiteSpace=wrap;html=1;" parent="1" vertex="1">
          <mxGeometry x="735" y="370" width="120" height="60" as="geometry" />
        </mxCell>
        <mxCell id="z3XUsXF2Qn8Yz3vl9ZlV-25" value="..." style="text;html=1;strokeColor=none;fillColor=none;align=center;verticalAlign=middle;whiteSpace=wrap;rounded=0;rotation=-90;" parent="1" vertex="1">
          <mxGeometry x="775" y="330" width="40" height="20" as="geometry" />
        </mxCell>
        <mxCell id="Rpx-h0TqYVqvjsVcwSOK-14" style="edgeStyle=orthogonalEdgeStyle;rounded=0;orthogonalLoop=1;jettySize=auto;html=1;" edge="1" parent="1" target="Rpx-h0TqYVqvjsVcwSOK-12">
          <mxGeometry relative="1" as="geometry">
            <mxPoint x="1100" y="280" as="sourcePoint" />
          </mxGeometry>
        </mxCell>
        <mxCell id="XvO12jJ2CztaaydwzWcA-5" value="Cache" style="whiteSpace=wrap;html=1;rounded=1;" parent="1" vertex="1">
          <mxGeometry x="970" y="250" width="120" height="60" as="geometry" />
        </mxCell>
        <mxCell id="Rpx-h0TqYVqvjsVcwSOK-2" value="DB" style="shape=cylinder3;whiteSpace=wrap;html=1;boundedLbl=1;backgroundOutline=1;size=15;" vertex="1" parent="1">
          <mxGeometry x="980" y="325" width="100" height="100" as="geometry" />
        </mxCell>
        <mxCell id="Rpx-h0TqYVqvjsVcwSOK-5" value="" style="edgeStyle=orthogonalEdgeStyle;rounded=0;orthogonalLoop=1;jettySize=auto;html=1;entryX=0.433;entryY=1.014;entryDx=0;entryDy=0;entryPerimeter=0;" edge="1" parent="1" source="Rpx-h0TqYVqvjsVcwSOK-3" target="Rpx-h0TqYVqvjsVcwSOK-4">
          <mxGeometry relative="1" as="geometry" />
        </mxCell>
        <mxCell id="Rpx-h0TqYVqvjsVcwSOK-8" style="edgeStyle=orthogonalEdgeStyle;rounded=0;orthogonalLoop=1;jettySize=auto;html=1;entryX=0;entryY=0.5;entryDx=0;entryDy=0;" edge="1" parent="1" source="Rpx-h0TqYVqvjsVcwSOK-3" target="Rpx-h0TqYVqvjsVcwSOK-6">
          <mxGeometry relative="1" as="geometry" />
        </mxCell>
        <mxCell id="Rpx-h0TqYVqvjsVcwSOK-3" value="TicketSyncWorker" style="rounded=1;whiteSpace=wrap;html=1;" vertex="1" parent="1">
          <mxGeometry x="955" y="511" width="120" height="60" as="geometry" />
        </mxCell>
        <mxCell id="Rpx-h0TqYVqvjsVcwSOK-7" value="" style="edgeStyle=orthogonalEdgeStyle;rounded=0;orthogonalLoop=1;jettySize=auto;html=1;" edge="1" parent="1" source="Rpx-h0TqYVqvjsVcwSOK-6" target="Rpx-h0TqYVqvjsVcwSOK-3">
          <mxGeometry relative="1" as="geometry" />
        </mxCell>
        <mxCell id="Rpx-h0TqYVqvjsVcwSOK-6" value="Theaters&#39; API" style="rounded=1;whiteSpace=wrap;html=1;" vertex="1" parent="1">
          <mxGeometry x="1140" y="511" width="120" height="60" as="geometry" />
        </mxCell>
        <mxCell id="Rpx-h0TqYVqvjsVcwSOK-13" value="" style="edgeStyle=orthogonalEdgeStyle;rounded=0;orthogonalLoop=1;jettySize=auto;html=1;" edge="1" parent="1" source="Rpx-h0TqYVqvjsVcwSOK-10" target="Rpx-h0TqYVqvjsVcwSOK-12">
          <mxGeometry relative="1" as="geometry" />
        </mxCell>
        <mxCell id="Rpx-h0TqYVqvjsVcwSOK-10" value="By Movie ID Booking Queue" style="shape=cylinder3;whiteSpace=wrap;html=1;boundedLbl=1;backgroundOutline=1;size=15;rotation=90;" vertex="1" parent="1">
          <mxGeometry x="1010" y="-100" width="60" height="190" as="geometry" />
        </mxCell>
        <mxCell id="Rpx-h0TqYVqvjsVcwSOK-19" style="edgeStyle=orthogonalEdgeStyle;rounded=0;orthogonalLoop=1;jettySize=auto;html=1;entryX=1;entryY=0.25;entryDx=0;entryDy=0;" edge="1" parent="1" source="Rpx-h0TqYVqvjsVcwSOK-12" target="Rpx-h0TqYVqvjsVcwSOK-4">
          <mxGeometry relative="1" as="geometry">
            <Array as="points">
              <mxPoint x="1300" y="275" />
            </Array>
          </mxGeometry>
        </mxCell>
        <mxCell id="Rpx-h0TqYVqvjsVcwSOK-12" value="App Workers" style="whiteSpace=wrap;html=1;" vertex="1" parent="1">
          <mxGeometry x="1240" y="-35" width="120" height="60" as="geometry" />
        </mxCell>
        <mxCell id="Rpx-h0TqYVqvjsVcwSOK-15" value="Take a task and check DB status&amp;nbsp;" style="text;html=1;strokeColor=none;fillColor=none;align=center;verticalAlign=middle;whiteSpace=wrap;rounded=0;" vertex="1" parent="1">
          <mxGeometry x="1250" y="80" width="40" height="20" as="geometry" />
        </mxCell>
        <mxCell id="Rpx-h0TqYVqvjsVcwSOK-25" value="return no seats/payment to user" style="text;html=1;strokeColor=none;fillColor=none;align=center;verticalAlign=middle;whiteSpace=wrap;rounded=0;" vertex="1" parent="1">
          <mxGeometry x="1330" y="80" width="40" height="20" as="geometry" />
        </mxCell>
      </root>
    </mxGraphModel>
  </diagram>
</mxfile>
